<svg xmlns="http://www.w3.org/2000/svg" xmlns:xlink="http://www.w3.org/1999/xlink" viewBox="0 0 887.5905 794.6995">
  <defs>
    <linearGradient id="a" x1="148.9052" x2="148.9052" y1="794.6995" y2="65.6337" gradientUnits="userSpaceOnUse">
      <stop offset="0" stop-color="gray" stop-opacity=".25"/>
      <stop offset=".5351" stop-color="gray" stop-opacity=".12"/>
      <stop offset="1" stop-color="gray" stop-opacity=".1"/>
    </linearGradient>
    <linearGradient id="c" x1="446.7157" x2="446.7157" y1="794.6995" y2="65.6337" xlink:href="#a"/>
    <linearGradient id="d" x1="741.6057" x2="741.6057" y1="794.6995" y2="65.6337" xlink:href="#a"/>
    <linearGradient id="b" x1="889.9" x2="889.9" y1="291.9372" y2="71.2064" gradientUnits="userSpaceOnUse">
      <stop offset="0" stop-color="#b3b3b3" stop-opacity=".25"/>
      <stop offset=".5351" stop-color="#b3b3b3" stop-opacity=".1"/>
      <stop offset="1" stop-color="#b3b3b3" stop-opacity=".05"/>
    </linearGradient>
    <linearGradient id="e" x1="733.6952" x2="733.6952" y1="105.8602" y2="63.0318" gradientUnits="userSpaceOnUse">
      <stop offset="0" stop-opacity=".12"/>
      <stop offset=".5514" stop-opacity=".09"/>
      <stop offset="1" stop-opacity=".02"/>
    </linearGradient>
    <linearGradient id="f" x1="311.1462" x2="311.1462" y1="736.281" y2="513.9898" xlink:href="#b"/>
    <linearGradient id="g" x1="154.9415" x2="154.9415" y1="549.2607" y2="506.1296" gradientUnits="userSpaceOnUse">
      <stop offset=".0054" stop-opacity=".12"/>
      <stop offset=".5514" stop-opacity=".09"/>
      <stop offset="1" stop-opacity=".05"/>
    </linearGradient>
  </defs>
  <path fill="url(#a)" d="M297.81 766.722L0 794.699V93.611l297.81-27.977v701.088z"/>
  <path fill="url(#c)" d="M297.81 766.722l297.811 27.977V93.611L297.81 65.634v701.088z"/>
  <path fill="url(#d)" d="M887.591 766.722l-291.97 27.977V93.611l291.97-27.977v701.088z"/>
  <path fill="#f5f5f5" d="M298.865 747.261L9.488 774.143V100.511l289.377-26.882v673.632z"/>
  <path fill="#fff" d="M298.865 747.261l289.377 26.882V100.511L298.865 73.629v673.632z"/>
  <path fill="#f5f5f5" d="M877.618 747.261l-289.376 26.882V100.511l289.376-26.882v673.632z"/>
  <path fill="#0a7f90" d="M298.865 135.494l-219.8 7.712v101.203h186.592v-36.592l33.208-1.165 50.601 15.619v-71.158l-50.601-15.619zM298.865 701.403l-246.682 23.72v-90.134l246.682-23.72v90.134zM271.865 422.403l-246.682 23.72v-90.134l246.682-23.72v90.134zM444.3438 631.8262h107.528v82.2273h-107.528zM409.3438 438.8262h107.528v82.2273h-107.528zM453.3438 181.8262h107.528v82.2273h-107.528zM836.505 676.102l-167.617 14.232V581.225l167.617-14.232v109.109zM816.505 292.102l-167.617 14.232V197.225l167.617-14.232v109.109z" opacity=".3"/>
  <path fill="url(#b)" d="M958.2817 142.038c0 39.1192-68.3817 149.8993-68.3817 149.8993S821.5182 181.157 821.5182 142.038 852.1338 71.2064 889.9 71.2064s68.3817 31.7124 68.3817 70.8316z" transform="translate(-156.2047 -52.6502)"/>
  <ellipse cx="733.6952" cy="84.446" fill="url(#e)" rx="20.6735" ry="21.4142"/>
  <path fill="#0a7f90" d="M796.9724 89.5147c0 34.947-63.2772 133.9122-63.2772 133.9122s-63.2771-98.9651-63.2771-133.9121a63.2772 63.2772 0 11126.5543 0z"/>
  <circle cx="733.6952" cy="85.1" r="19.1303" fill="#fff"/>
  <path fill="url(#f)" d="M381.5577 585.322c0 39.3958-70.4115 150.959-70.4115 150.959s-70.4115-111.5632-70.4115-150.959 31.5243-71.3322 70.4115-71.3322 70.4115 31.9366 70.4115 71.3323z" transform="translate(-156.2047 -52.6502)"/>
  <ellipse cx="154.9415" cy="527.6951" fill="url(#g)" rx="21.2872" ry="21.5656"/>
  <path fill="#0a7f90" d="M218.2186 532.2772c0 34.947-63.2771 133.9121-63.2771 133.9121s-63.2772-98.9651-63.2772-133.9121a63.2772 63.2772 0 11126.5543 0z"/>
  <circle cx="154.9415" cy="527.8625" r="19.1303" fill="#fff"/>
  <path fill="#0a7f90" d="M561.2186 537.2772c0 34.947-63.2771 133.9121-63.2771 133.9121s-63.2772-98.9651-63.2772-133.9121a63.2772 63.2772 0 11126.5543 0z"/>
  <circle cx="497.9415" cy="532.8625" r="19.1303" fill="#fff"/>
  <path fill="#0a7f90" d="M809.2186 497.2772c0 34.947-63.2771 133.9121-63.2771 133.9121s-63.2772-98.9651-63.2772-133.9121a63.2772 63.2772 0 11126.5543 0z"/>
  <circle cx="745.9415" cy="492.8625" r="19.1303" fill="#fff"/>
  <path fill="#0a7f90" d="M250.2186 63.2772c0 34.947-63.2771 133.9121-63.2771 133.9121s-63.2772-98.9651-63.2772-133.9121a63.2772 63.2772 0 11126.5543 0z"/>
  <circle cx="186.9415" cy="58.8625" r="19.1303" fill="#fff"/>
</svg>
